<svg width="16" height="16" viewBox="0 0 16 16"
    fill="none" xmlns="http://www.w3.org/2000/svg">
    <mask 
        id="mask0_109_3" style="mask-type:alpha" maskUnits="userSpaceOnUse" x="0" y="0"
        width="16" height="16">
            <path
            d="M0 8C0 3.58172 3.58172 0 8 0C12.4183 0 16 3.58172 16 8C16 12.4183 12.4183 16 8 16C3.58172 16 0 12.4183 0 8Z"
            fill="#4D6F56"/>
    </mask>
    <g mask="url(#mask0_109_3)">
        <path
            d="M0 8C0 3.58172 3.58172 0 8 0C12.4183 0 16 3.58172 16 8C16 12.4183 12.4183 16 8 16C3.58172 16 0 12.4183 0 8Z"
            fill="#4D6F56"/>
        <path 
            fill-rule="evenodd" clip-rule="evenodd"
            d="M8.39017 4.73959C10.8209 6.43362 11.1092 8.21962 9.33251 11.2448L9.29447 11.2535C5.68215 8.66706 7.36684 5.72643 7.98894 4.85642C8.03709 4.78957 8.10498 4.73995 8.1828 4.71474C8.21716 4.704 8.25337 4.70065 8.28908 4.70493C8.3248 4.70921 8.35923 4.72102 8.39017 4.73959ZM12.87 10.1784C12.8976 10.1751 12.9255 10.1784 12.9515 10.1881C12.9775 10.1978 13.0009 10.2137 13.0197 10.2343C13.0391 10.2566 13.0533 10.2829 13.0614 10.3114C13.0707 10.3419 13.0745 10.3739 13.0725 10.4058C13.0099 11.1801 12.5559 13.5242 9.53132 14.3246C9.39495 14.8617 9.403 15.426 9.55464 15.959L8.72149 16.4561C8.49245 15.5674 8.49245 14.6341 8.72149 13.7454C8.85737 13.1422 9.1133 12.5734 9.47365 12.0737C9.81478 11.5899 10.2562 11.1873 10.7669 10.8943C11.3937 10.4955 12.1064 10.2563 12.8443 10.197L12.87 10.1784ZM8.72026 12.8244C8.17914 10.9452 7.22085 10.4941 5.24904 11.1888C5.22577 11.1973 5.20417 11.21 5.18523 11.2261C5.16599 11.2429 5.14943 11.2626 5.13615 11.2845C5.12357 11.3075 5.11447 11.3322 5.10916 11.3579C5.10489 11.3821 5.10489 11.4069 5.10916 11.4312C5.20732 12.034 5.75334 13.8374 8.72026 12.8244Z"
            fill="white"/>
    </g>
</svg>
